<?xml version="1.0" encoding="UTF-8" standalone="no"?>
<!-- Created with Inkscape (http://www.inkscape.org/) -->

<svg
   xmlns:dc="http://purl.org/dc/elements/1.1/"
   xmlns:cc="http://creativecommons.org/ns#"
   xmlns:rdf="http://www.w3.org/1999/02/22-rdf-syntax-ns#"
   xmlns:svg="http://www.w3.org/2000/svg"
   xmlns="http://www.w3.org/2000/svg"
   xmlns:sodipodi="http://sodipodi.sourceforge.net/DTD/sodipodi-0.dtd"
   xmlns:inkscape="http://www.inkscape.org/namespaces/inkscape"
   id="svg3054"
   version="1.1"
   inkscape:version="0.48.1 r9760"
   width="938.31293"
   height="939.18768"
   sodipodi:docname="elements.svg"
   inkscape:export-filename="/home/fmach/hpfem.org/agros2d/doc/source/introduction/curvilinear_elements/elements.png"
   inkscape:export-xdpi="90"
   inkscape:export-ydpi="90">
  <metadata
     id="metadata3060">
    <rdf:RDF>
      <cc:Work
         rdf:about="">
        <dc:format>image/svg+xml</dc:format>
        <dc:type
           rdf:resource="http://purl.org/dc/dcmitype/StillImage" />
        <dc:title />
      </cc:Work>
    </rdf:RDF>
  </metadata>
  <defs
     id="defs3058" />
  <sodipodi:namedview
     pagecolor="#ffffff"
     bordercolor="#666666"
     borderopacity="1"
     objecttolerance="10"
     gridtolerance="10"
     guidetolerance="10"
     inkscape:pageopacity="0"
     inkscape:pageshadow="2"
     inkscape:window-width="1870"
     inkscape:window-height="1056"
     id="namedview3056"
     showgrid="false"
     inkscape:zoom="0.87005839"
     inkscape:cx="316.16738"
     inkscape:cy="473.35831"
     inkscape:window-x="50"
     inkscape:window-y="24"
     inkscape:window-maximized="1"
     inkscape:current-layer="layer3"
     fit-margin-top="0"
     fit-margin-left="0"
     fit-margin-right="0"
     fit-margin-bottom="0" />
  <path
     style="fill:#000000;stroke:#0000c8;stroke-width:0.00083658;stroke-miterlimit:4;stroke-opacity:1;stroke-dasharray:none"
     d="m 5.488717e-4,938.93673 c -8.03e-9,-0.13779 -4.7451e-7,-29.78841 -1.03655e-6,-65.89026 l -1.02186e-6,-65.63972 -2.89774e-6,-62.13225 -2.89773e-6,-62.13226 -4.8353e-6,-59.62692 -4.8353e-6,-59.62692 -6.52602e-6,-53.61413 -6.52601e-6,-53.61412 -7.88177e-6,-45.39396 -7.88177e-6,-45.39394 -9.5003e-6,-38.19828 -9.5003e-6,-38.19827 -1.025794e-5,-27.43578 -1.025795e-5,-27.43577 -1.097826e-5,-16.87551 -1.097825e-5,-16.87552 -1.125337e-5,-5.64892 c -6.18936e-6,-3.10689 -1.131231e-5,-5.64072 -1.138433e-5,-5.63071 -7.202e-8,0.01 -1.3095e-7,-42.63986 -1.3095e-7,-94.777447 l 0,-94.795622 8.2933e-7,0.597362 c 4.5612e-7,0.328539 6.80044e-6,3.550878 1.409847e-5,7.160732 l 1.326915e-5,6.563391 1.379293e-5,21.109554 1.379294e-5,21.109554 1.300726e-5,34.772039 1.300726e-5,34.772037 1.16105e-5,46.71474 1.161051e-5,46.71476 1.03209e-5,59.44693 1.032091e-5,59.44693 7.95412e-6,65.24552 7.9541e-6,65.24553 6.03143e-6,74.20513 6.0314e-6,74.20512 3.68537e-6,78.92153 3.68536e-6,78.92154 1.2062e-6,78.76029 c 6.634e-7,43.31815 1.20749e-6,80.22591 1.20906e-6,82.01722 l 2.8e-9,3.25693 -1.641184e-5,0 c -9.02652e-6,0 -1.641845e-5,-0.11274 -1.642653e-5,-0.25053 z m 3.248918e-5,-4.92536 c 0,-2.68054 -2.1866e-6,-148.83168 -2.31365e-6,-154.64356 -3.276e-8,-1.4981 -3.6323e-6,17.3589 -1.470927e-5,77.05752 -8.06625e-6,43.47256 -1.474054e-5,79.42726 -1.483177e-5,79.89934 -9.218e-8,0.47702 6.94651e-6,0.85833 1.584442e-5,0.85833 l 1.601027e-5,0 0,-3.17163 z m -1.644266e-5,-82.94388 c 7.50406e-6,-40.47386 1.36253e-5,-73.68238 1.36028e-5,-73.79669 -6.333e-8,-0.32149 -3.120043e-5,31.27325 -3.128207e-5,31.74183 -3.965e-8,0.22757 3.5275e-7,28.14435 8.7197e-7,62.03727 5.1925e-7,33.89292 9.4541e-7,62.45263 9.4707e-7,63.46601 3.67e-9,2.24481 -1.2767e-6,8.98135 1.586023e-5,-83.44842 z m -1.38872e-6,-60.69927 c 8.38981e-6,-8.4899 1.528564e-5,-15.61678 1.53241e-5,-15.83751 3.845e-8,-0.22072 -1.49716e-6,-33.95126 -3.41248e-6,-74.95675 -1.91534e-6,-41.0055 -3.5359e-6,-75.79229 -3.60127e-6,-77.30401 -1.0912e-7,-2.52347 -5.9168e-7,0.88246 -5.89243e-6,41.58852 -1.930399e-5,148.2412 -1.863661e-5,143.00063 -1.814216e-5,142.45993 2.5852e-7,-0.2827 7.33444e-6,-7.46027 1.572424e-5,-15.95018 z m -4.19039e-6,-78.41861 c 6.54242e-6,-50.29674 1.189532e-5,-91.60611 1.189532e-5,-91.79861 0,-0.87816 -2.985261e-5,62.10504 -2.985642e-5,62.99124 -2.38e-9,0.55117 1.27264e-6,28.38712 2.83337e-6,61.85764 2.14138e-6,45.923 2.88611e-6,60.55405 3.03504e-6,59.62692 1.0855e-7,-0.67571 5.55026e-6,-42.38046 1.209269e-5,-92.67719 z m -1.94989e-6,-65.09167 c 1.306399e-5,-27.26024 1.379225e-5,-28.90607 1.318185e-5,-29.79046 -1.88874e-6,-2.73652 -3.871406e-5,-52.34724 -3.874935e-5,-52.20275 -3.961e-8,0.16221 9.08244e-6,112.79389 9.29529e-6,114.7706 5.796e-8,0.53828 6.0146e-7,-0.0988 1.27271e-6,-1.49178 6.4435e-7,-1.3372 7.39413e-6,-15.41572 1.49995e-5,-31.28561 z m 1.401371e-5,-31.10915 c -3.32e-9,-0.41338 -2.62963e-6,-32.99524 -5.83616e-6,-72.40412 -3.86694e-6,-47.52564 -5.90783e-6,-71.54379 -6.06105e-6,-71.32961 -5.462e-7,0.76355 -2.754074e-5,90.89916 -2.734023e-5,91.28987 2.1024e-7,0.40968 3.883655e-5,52.82654 3.911259e-5,53.07675 7.202e-8,0.0653 1.282e-7,-0.21951 1.2485e-7,-0.63289 z m -2.5441e-5,-101.40689 c 7.37006e-6,-24.40582 1.34001e-5,-44.80748 1.34001e-5,-45.33702 0,-1.86739 -1.576378e-5,-130.20674 -1.589467e-5,-129.40498 -9.384e-8,0.57481 -9.19437e-6,172.81293 -1.163631e-5,220.23081 -9.458e-8,1.8364 -7.544e-8,1.86191 3.1505e-7,0.42026 2.2865e-7,-0.84416 6.44578e-6,-21.50325 1.381583e-5,-45.90907 z m -8.62694e-6,-65.19201 c 3.16948e-6,-60.3503 5.74621e-6,-109.82241 5.72607e-6,-109.93801 -4.095e-8,-0.23507 -2.358646e-5,113.00591 -2.408604e-5,115.84066 -3.0664e-7,1.73994 -9.793e-8,3.60044 6.01121e-6,53.58587 3.48088e-6,28.48085 6.38674e-6,51.43595 6.45748e-6,51.01133 7.073e-8,-0.4246 2.72181e-6,-50.14953 5.89128e-6,-110.49985 z m -6.18941e-6,-55.12305 c 6.46605e-6,-31.14129 1.174765e-5,-56.67932 1.173689e-5,-56.75118 -4.028e-8,-0.26879 -3.966292e-5,26.83578 -3.990566e-5,27.29816 -1.6474e-7,0.31379 2.48686e-6,16.21273 7.58806e-6,45.49797 l 7.84128e-6,45.01565 4.9148e-7,-2.22004 c 2.7031e-7,-1.22103 5.78189e-6,-27.69929 1.224795e-5,-58.84056 z m -8.01182e-6,-45.20127 c 1.075499e-5,-7.26701 1.961163e-5,-13.49767 1.96814e-5,-13.84591 6.978e-8,-0.34825 -4.2907e-6,-25.98244 -9.68997e-6,-56.96485 l -9.81684e-6,-56.33168 -1.021375e-5,69.84028 c -5.61757e-6,38.41216 -1.024109e-5,70.21929 -1.02745e-5,70.6825 -3.34e-8,0.46322 1.2373e-7,0.61501 3.4919e-7,0.33732 2.2546e-7,-0.2777 9.20947e-6,-6.45064 1.996447e-5,-13.71766 z M 5.1256018e-4,292.6343 c 5.57347e-6,-38.12834 1.010631e-5,-69.4808 1.007298e-5,-69.67211 -3.333e-8,-0.19132 -8.7146e-6,14.63263 -1.929171e-5,32.94213 -1.271973e-5,22.01845 -1.917246e-5,33.62663 -1.905789e-5,34.28426 4.1006e-7,2.35364 1.774429e-5,71.67798 1.793367e-5,71.72168 1.1516e-7,0.0266 4.76948e-6,-31.14761 1.034295e-5,-69.27596 z m -7.27851e-6,-41.95785 c 1.37584e-5,-23.81359 1.754293e-5,-30.70754 1.737211e-5,-31.64529 -1.2012e-7,-0.65941 -5.23666e-6,-21.34892 -1.137009e-5,-45.97668 -9.13429e-6,-36.67718 -1.119047e-5,-44.53439 -1.136603e-5,-43.43266 -1.1789e-7,0.73978 -2.77079e-6,26.82429 -5.89534e-6,57.96558 -3.12456e-6,31.1413 -6.66172e-6,66.36769 -7.86037e-6,78.28088 l -2.17936e-6,21.66035 1.85428e-6,-3.20291 c 1.01986e-6,-1.7616 9.77001e-6,-16.90378 1.94448e-5,-33.64927 z m -2.190504e-5,34.86947 c -4.088e-8,-0.68896 -2.11168e-6,-51.19505 -4.60178e-6,-112.23576 -2.49009e-6,-61.0407 -4.56866e-6,-110.984513 -4.61905e-6,-110.986246 -5.038e-8,-0.002 -2.44033e-6,37.088299 -5.311e-6,82.422296 -2.87066e-6,45.33399 -5.31919e-6,83.8112 -5.44117e-6,85.50487 l -2.2179e-7,3.07942 9.98494e-6,26.71386 c 5.49171e-6,14.69263 1.005226e-5,26.72295 1.013455e-5,26.73405 8.23e-8,0.0111 1.1618e-7,-0.54352 7.53e-8,-1.23249 z m 8.57373e-6,-80.42118 c 4.32606e-6,-42.99152 7.80878e-6,-78.28299 7.73938e-6,-78.42548 -6.94e-8,-0.14249 -5.74375e-6,-15.30468 -1.260966e-5,-33.693737 C 4.8021416e-4,74.61646 4.745756e-4,59.87473 4.7454993e-4,60.246121 c -4.52e-8,0.654142 8.94452e-6,221.523269 9.13946e-6,224.548199 8.612e-8,1.33618 1.1347e-7,1.33618 2.4614e-7,0 8.21e-8,-0.82676 3.68877e-6,-36.67807 8.01483e-6,-79.66958 z m -2.871372e-5,23.29959 c 1.58562e-6,-24.16795 1.054011e-5,-166.633792 1.049118e-5,-166.914609 -8.289e-8,-0.475753 -3.212951e-5,136.977669 -3.212951e-5,137.808949 0,0.48891 2.078044e-5,33.06997 2.124239e-5,33.30536 6.408e-8,0.0327 2.4225e-7,-1.85721 3.9594e-7,-4.1997 z m -2.22494e-5,-30.57416 c 0,-0.41838 1.21948e-6,-40.41201 2.70995e-6,-88.87473 1.49048e-6,-48.462712 2.68779e-6,-88.495816 2.66069e-6,-88.96246 -2.71e-8,-0.466633 -6.23096e-6,36.923075 -1.378635e-5,83.08824 -7.5554e-6,46.16518 -1.369721e-5,84.16553 -1.364848e-5,84.44523 1.0188e-7,0.5848 1.976346e-5,10.75837 2.114757e-5,10.94248 5.0414e-7,0.067 9.1662e-7,-0.22038 9.1662e-7,-0.63876 z m 2.20767e-5,-93.39632 1.081538e-5,-46.417252 -1.352159e-5,-20.805978 c -7.43688e-6,-11.443288 -1.352739e-5,-20.738695 -1.353448e-5,-20.65645 -3.4e-8,0.39457 -5.49212e-6,179.62758 -5.48966e-6,180.26891 2.88e-9,0.75235 2.69052e-6,-10.67445 2.173035e-5,-92.38923 z m -3.046728e-5,-3.87706 c 7.51315e-6,-45.926731 1.361695e-5,-83.751776 1.356401e-5,-84.055653 -7.431e-8,-0.426507 -2.651909e-5,-14.191828 -2.747783e-5,-14.303045 -1.7305e-7,-0.02004 -2.1824e-7,19.111461 -2.1824e-7,92.385671 0,77.674187 3.762e-8,92.176977 2.359e-7,90.943587 1.2974e-7,-0.80708 6.38302e-6,-39.04383 1.389616e-5,-84.97056 z"
     id="path3175"
     inkscape:connector-curvature="0" />
  <g
     inkscape:groupmode="layer"
     id="layer4"
     inkscape:label="Background">
    <rect
       style="fill:#ffffff;fill-opacity:1;stroke:none"
       id="rect3856"
       width="938.31299"
       height="939"
       x="0"
       y="0.18768311" />
  </g>
  <g
     inkscape:groupmode="layer"
     id="layer1"
     inkscape:label="Edge elements "
     transform="translate(0,-19.812317)">
    <path
       style="fill:#000000;stroke:#0000c8;stroke-width:2;stroke-miterlimit:4;stroke-opacity:1;stroke-dasharray:none"
       d="m 748.9159,957.75 c -0.046,-0.1375 -2.7178,-29.725 -5.9369,-65.75 l -5.8528,-65.5 -16.597,-62 -16.59696,-62 L 676.23771,643 648.54318,583.5 611.16498,530 573.78679,476.5 528.6434,431.20267 483.5,385.90534 429.08637,347.78837 374.67273,309.67141 315.9196,282.29403 257.16647,254.91666 194.28776,238.07707 131.40906,221.23747 66.95453,215.60059 C 31.50454,212.50031 2.1625,209.97188 1.75,209.98186 1.3375,209.99186 1,167.43277 1,115.40615 L 1,20.812317 5.75,21.4084 c 2.6125,0.327845 38.95,3.543319 80.75,7.145497 l 76,6.549415 79,21.064621 79,21.064624 74.5,34.698013 74.5,34.69804 66.5,46.6153 66.5,46.61531 59.11371,59.32039 59.1137,59.32039 45.55779,65.10665 45.5577,65.10665 34.5454,74.04717 34.5453,74.04717 21.1082,78.75354 21.1082,78.75354 6.9086,78.59264 c 3.7997,43.22595 6.916,80.05514 6.925,81.84264 l 0.016,3.25 -94,0 c -51.7,0 -94.0378,-0.1125 -94.0841,-0.25 z M 935,952.83513 c 0,-2.67484 -12.5239,-148.51488 -13.2516,-154.31439 -0.1876,-1.49491 -20.8043,17.32195 -84.2484,76.8935 -46.2,43.38002 -84.4275,79.25819 -84.95,79.72926 -0.528,0.47601 39.7866,0.8565 90.75,0.8565 l 91.7,0 0,-3.16487 z M 840.8235,870.0678 c 42.98,-40.38771 78.0399,-73.52554 77.911,-73.6396 -0.3627,-0.32081 -178.7027,31.20668 -179.1703,31.67426 -0.2271,0.22709 2.0204,28.08444 4.9943,61.90522 2.974,33.82077 5.4149,62.31969 5.4244,63.33091 0.021,2.24003 -7.3124,8.96223 90.8406,-83.27079 z m -7.954,-60.57006 c 48.0532,-8.47183 87.5496,-15.58354 87.7699,-15.8038 0.2202,-0.22025 -8.5751,-33.87899 -19.5453,-74.7972 -10.9702,-40.91821 -20.2521,-75.63096 -20.6265,-77.13946 -0.625,-2.5181 -3.3889,0.88058 -33.7493,41.5 -110.565,147.92565 -106.7425,142.69623 -103.9105,142.15668 1.4807,-0.28209 42.0085,-7.44439 90.0617,-15.91622 z M 808.8687,731.24605 C 846.3409,681.05637 877,639.83493 877,639.64284 877,638.76655 706.01707,701.61568 705.99523,702.5 c -0.0136,0.55 7.28917,28.32669 16.22835,61.72597 12.26492,45.82525 16.53042,60.42515 17.38342,59.5 0.6217,-0.67428 31.7895,-42.29025 69.2617,-92.47992 z m -11.1681,-64.95312 c 74.8249,-27.20221 78.9961,-28.84454 75.5,-29.72704 -10.8179,-2.7307 -221.73757,-52.23582 -221.93968,-52.09163 -0.22688,0.16186 52.02035,112.55379 53.23942,114.52629 0.33197,0.53714 3.44493,-0.0986 7.28953,-1.4886 3.69057,-1.33435 42.35043,-15.38291 85.91073,-31.21902 z M 877.9651,635.25 c -0.019,-0.4125 -15.0614,-32.925 -33.427,-72.25 -22.1482,-47.42447 -33.8375,-71.3915 -34.7151,-71.17777 -3.1284,0.76192 -157.74154,90.70567 -156.5931,91.09555 1.20415,0.4088 222.4391,52.71409 224.0201,52.96377 0.4125,0.0652 0.7343,-0.21905 0.7151,-0.63155 z M 732.25,534.05897 C 774.4625,509.7051 809,489.34687 809,488.81845 c 0,-1.86341 -90.28816,-129.92959 -91.03784,-129.12953 -0.53746,0.57358 -52.66139,172.44509 -66.64781,219.76203 -0.54167,1.83249 -0.43209,1.85795 1.80448,0.41937 1.30964,-0.84237 36.91867,-21.45748 79.13117,-45.81135 z m -49.4114,-65.05324 c 18.15341,-60.22185 32.91181,-109.58865 32.79645,-109.70401 -0.23456,-0.23457 -135.09312,112.76538 -137.95452,115.59409 -1.7563,1.73624 -0.56091,3.59278 34.42963,53.47181 19.937,28.42022 36.58055,51.32646 36.98567,50.90275 0.40511,-0.4237 15.58936,-50.04279 33.74277,-110.26464 z M 647.38827,414 c 37.0348,-31.075 67.28554,-56.55867 67.22387,-56.63038 -0.23067,-0.26821 -227.17214,26.77866 -228.56249,27.24006 -0.94353,0.31312 14.24366,16.17822 43.46116,45.40113 l 44.91151,44.91983 2.81497,-2.21532 C 578.78552,471.49689 610.35346,445.075 647.38827,414 z M 601.5,368.89495 c 61.6,-7.25154 112.327,-13.46894 112.72666,-13.81644 0.39966,-0.34751 -24.57534,-25.92712 -55.5,-56.84359 L 602.5,242.02315 544,311.71477 c -32.175,38.33039 -58.65654,70.06981 -58.84787,70.53204 -0.19133,0.46223 0.70867,0.6137 2,0.3366 C 488.44346,382.3063 539.9,376.1465 601.5,368.89495 z M 540.93911,312.8233 c 31.92245,-38.04719 57.88462,-69.33291 57.69371,-69.52382 -0.19092,-0.19091 -49.91351,14.60149 -110.49467,32.87201 -72.85313,21.97158 -109.81161,33.55505 -109.15537,34.21129 2.34863,2.34863 101.63164,71.5254 102.71637,71.56901 0.65954,0.0265 27.31752,-31.08131 59.23996,-69.12849 z m -41.68822,-41.86855 c 78.80222,-23.7629 100.47838,-30.64218 99.5,-31.57793 -0.68799,-0.65801 -29.99333,-21.30347 -65.12298,-45.8788 -52.31728,-36.59911 -64.09418,-44.4396 -65.09975,-43.34021 -0.6752,0.7382 -15.8699,26.76719 -33.76599,57.84219 -17.89609,31.075 -38.15544,66.22641 -45.02078,78.11424 l -12.48243,21.61425 10.62052,-3.1961 c 5.84129,-1.75785 55.95842,-16.86779 111.37141,-33.57764 z M 373.78825,305.75 C 373.55409,305.0625 361.69345,254.66392 347.43126,193.75315 333.16907,132.84238 321.26389,83.004875 320.97531,83.003143 320.68673,83.001443 306.99812,120.0125 290.55618,165.25 c -16.44194,45.2375 -30.46606,83.63279 -31.16472,85.32286 l -1.27027,3.07286 57.1894,26.657 c 31.45418,14.66135 57.57505,26.66607 58.0464,26.67714 0.47134,0.0111 0.66541,-0.54236 0.43126,-1.22986 z M 422.89489,225.5 C 447.6727,182.6 467.62023,147.38366 467.22273,147.24147 466.82523,147.09928 434.325,131.96937 395,113.61944 355.675,95.269519 323.37973,80.559168 323.23273,80.929772 322.97383,81.582519 374.46306,301.98151 375.57963,305 c 0.49322,1.33333 0.64986,1.33333 1.40978,0 0.4702,-0.825 21.12767,-36.6 45.90548,-79.5 z M 258.43504,248.75 C 267.51678,224.63349 318.80424,82.470903 318.52403,82.190686 318.04928,81.715939 134.5,218.87679 134.5,219.7063 c 0,0.48786 119.02139,32.99957 121.66729,33.23446 0.36701,0.0326 1.3875,-1.85326 2.26775,-4.19076 z M 131,218.24093 c 0,-0.41749 6.98467,-40.32599 15.52148,-88.68555 8.53682,-48.359568 15.3945,-88.307461 15.23928,-88.773105 -0.15521,-0.465643 -35.68826,36.844479 -78.96232,82.911385 -43.27405,46.06691 -78.45174,83.98637 -78.17263,84.26548 0.58355,0.58355 113.19664,10.73547 121.12419,10.91919 2.8875,0.0669 5.25,-0.21991 5.25,-0.6374 z M 257.44586,125.04341 319.39172,78.72495 241.94586,57.963259 c -42.59522,-11.41893 -77.47908,-20.694545 -77.51967,-20.612478 -0.19477,0.393736 -31.45649,179.245239 -31.4424,179.885199 0.0165,0.75075 15.41014,-10.65173 124.46207,-92.19257 z M 82.94241,121.1746 C 125.97448,75.345627 160.93444,37.601097 160.6312,37.297863 160.2056,36.872263 8.74127,23.136247 3.25,23.025258 2.25885,23.005228 2,42.096042 2,115.21428 c 0,77.50886 0.21547,91.98078 1.35114,90.75001 0.74313,-0.80536 36.5592,-38.96072 79.59127,-84.78969 z"
       id="path3175-3"
       inkscape:connector-curvature="0" />
  </g>
  <g
     inkscape:groupmode="layer"
     id="layer2"
     inkscape:label="Curvilinear elements"
     style="display:inline">
    <path
       style="fill:#000000;stroke:#c80000;stroke-width:2;stroke-miterlimit:4;stroke-opacity:1;stroke-dasharray:none"
       d="m 748.6129,932.93764 c -0.2921,-2.8875 -0.7864,-14.28474 -1.0983,-25.32721 C 744.0219,783.98603 703.43286,651.7915 635.4267,542.55153 503.0257,329.87258 272.87798,197.86888 21.75,190.57066 L 1,189.96762 1,95.577633 1,1.1876441 l 8.25,0.0056 c 10.98706,0.0074 47.91575,1.729706 64.75,3.01984 C 191.58898,13.224802 308.72668,45.460032 415.5,98.190783 540.34189,159.84482 647.89572,246.71749 735.0713,356.31279 859.971,513.33412 932.1694,711.93837 936.6934,910.93768 l 0.6195,27.25 -94.0845,0 -94.0845,0 -0.531,-5.25 z m 186.9355,-7 c -0.2831,-5.6375 -0.7641,-18.34265 -1.069,-28.23367 C 932.7488,841.56 922.152,767.01301 908.1869,712.74077 l -1.7875,-6.94687 -11.5315,16.94687 C 867.7759,762.55579 752,935.04093 752,935.58818 c 0,0.32971 41.4142,0.59946 92.0316,0.59946 l 92.0315,0 -0.5147,-10.25 z M 828.3838,818.59046 C 875.4747,748.64273 905.3017,703.44616 904.6199,703.07042 864.636,681.03467 652.73414,566.12287 652.50924,566.35385 c -0.17876,0.18358 4.35098,9.10879 10.06609,19.83379 52.88402,99.24238 83.50507,213.90196 87.00267,325.77938 0.3831,12.25366 0.866,22.10993 1.0731,21.90282 0.2071,-0.20711 35.1868,-52.08283 77.7327,-115.27938 z M 905,700.52611 c 0,-0.36385 -2.5209,-9.47635 -5.6019,-20.25 C 882.0331,619.55519 858.0496,559.54244 829.226,504.68764 815.4607,478.49076 811.3886,471.63104 809.8277,472.00987 807.8717,472.48458 652,562.55339 652,563.20894 c 0,0.56926 250.8849,137.70456 252.25,137.88149 0.4125,0.0535 0.75,-0.20048 0.75,-0.56432 z M 729.2514,516.04758 c 43.0367,-24.82704 78.7796,-45.55597 79.4285,-46.06431 0.8559,-0.6704 -1.0867,-4.68294 -7.0732,-14.60993 -35.9842,-59.67022 -79.47603,-116.43523 -126.94388,-165.6857 l -11.56566,-12 -0.0487,5 c -0.0607,6.22668 -11.74893,260.1195 -12.4643,270.75 -0.28685,4.2625 -0.30997,7.75 -0.0514,7.75 0.25858,0 35.68199,-20.31303 78.71864,-45.14006 z M 655.41472,413.18764 c 3.48266,-74.525 6.193,-135.65858 6.02296,-135.8524 -0.40928,-0.46654 -263.56291,11.62631 -274.15346,12.59834 l -8.21578,0.75406 17.71578,10.9458 c 95.30145,58.88259 180.73838,144.17516 239.7525,239.34741 l 11.96328,19.2932 0.29131,-5.7932 c 0.16022,-3.18627 3.14075,-66.76821 6.62341,-141.29321 z M 512.17934,282.22185 c 71.12636,-3.28119 133.53005,-6.2517 138.67485,-6.60114 l 9.35419,-0.63534 -3.85419,-3.99031 C 650.09438,264.51418 622.45008,239.22149 609.5,228.12659 571.13639,195.25883 525.43615,162.20172 483.40664,136.9174 l -14.09336,-8.47835 -34.40664,59.61358 c -18.92365,32.78746 -39.66827,68.7309 -46.09916,79.87429 l -11.69252,20.26072 2.87186,0 c 1.57953,0 61.06616,-2.68461 132.19252,-5.96579 z M 370.07588,281.43764 C 360.5464,262.88153 235.23629,33.975572 234.58556,33.935328 233.56954,33.872498 5.10877,187.57464 5.53619,188.03348 c 0.17718,0.19021 10.59153,0.71634 23.14298,1.16918 63.01815,2.27361 128.57718,13.18989 189.32083,31.52392 45.02587,13.59 96.88501,35.06338 136,56.31368 10.175,5.52785 18.61898,10.07241 18.7644,10.09901 0.14541,0.0266 -1.06442,-2.53913 -2.68852,-5.70163 z m 52.26768,-74.71567 45.55631,-78.96567 -11.19994,-6.34248 C 440.85968,112.44355 388.23442,86.518003 371,79.194233 334.61304,63.731583 295.25934,49.756979 258.35598,39.194058 c -11.41525,-3.267407 -20.84346,-5.843016 -20.95159,-5.723577 -0.10814,0.11944 30.8828,57.268502 68.86874,126.997919 37.98594,69.72942 69.39132,126.42942 69.78973,126 0.39841,-0.42942 21.22472,-36.31531 46.2807,-79.74643 z M 117.91606,109.79695 C 180.72747,67.507083 231.75444,32.570006 231.30931,32.159014 230.55771,31.465043 215.98396,27.940501 194.47211,23.250241 144.19794,12.288889 82.25677,5.0236001 26.25,3.5189041 L 2,2.8673961 2,95.110853 c 0,50.806107 0.38487,92.093717 0.85675,91.910117 0.47121,-0.18333 52.2479,-34.93414 115.05931,-77.22402 z"
       id="path3085"
       inkscape:connector-curvature="0" />
  </g>
  <g
     inkscape:groupmode="layer"
     id="layer3"
     inkscape:label="Text">
    <path
       style="fill:none;stroke:#0000c8;stroke-width:1.87032473;stroke-linecap:butt;stroke-linejoin:miter;stroke-miterlimit:4;stroke-opacity:1;stroke-dasharray:none"
       d="m 50.935162,828.25254 148.129778,-1.27903 0,0 0,0"
       id="path2985"
       inkscape:connector-curvature="0" />
    <path
       style="fill:none;stroke:#c80000;stroke-width:1.87032473;stroke-linecap:butt;stroke-linejoin:miter;stroke-miterlimit:4;stroke-opacity:1;stroke-dasharray:none"
       d="m 50.935162,728.25254 148.129778,-1.27903 0,0 0,0"
       id="path2985-9"
       inkscape:connector-curvature="0" />
    <text
       xml:space="preserve"
       style="font-size:40px;font-style:normal;font-weight:normal;line-height:125%;letter-spacing:0px;word-spacing:0px;fill:#000000;fill-opacity:1;stroke:none;font-family:Sans;-inkscape-font-specification:Sans;font-stretch:normal;font-variant:normal;text-anchor:start;text-align:start;writing-mode:lr"
       x="223.34479"
       y="738.76306"
       id="text3773"
       sodipodi:linespacing="125%"><tspan
         sodipodi:role="line"
         id="tspan3775"
         x="223.34479"
         y="738.76306"
         style="font-size:40px;font-style:normal;font-variant:normal;font-weight:normal;font-stretch:normal;text-align:start;line-height:125%;writing-mode:lr;text-anchor:start;fill:#c80000;fill-opacity:1;font-family:Sans;-inkscape-font-specification:Sans">curvilinear elements</tspan></text>
    <text
       xml:space="preserve"
       style="font-size:40px;font-style:normal;font-variant:normal;font-weight:normal;font-stretch:normal;text-align:start;line-height:125%;letter-spacing:0px;word-spacing:0px;writing-mode:lr-tb;text-anchor:start;fill:#000000;fill-opacity:1;stroke:none;font-family:Sans;-inkscape-font-specification:Sans"
       x="223.34454"
       y="832.94861"
       id="text3777"
       sodipodi:linespacing="125%"
       transform="scale(1.0000014,0.9999986)"><tspan
         sodipodi:role="line"
         id="tspan3779"
         x="223.34454"
         y="832.94861"
         style="font-size:40px;font-style:normal;font-variant:normal;font-weight:normal;font-stretch:normal;text-align:start;line-height:125%;writing-mode:lr-tb;text-anchor:start;fill:#0000c8;fill-opacity:1;font-family:Sans;-inkscape-font-specification:Sans">normal elements</tspan></text>
  </g>
</svg>
