  0
SECTION
  2
HEADER
  9
$INSBASE
 10
0.0000
 20
0.0000
  9
$EXTMIN
 10
0.438746
 20
0.216501
  9
$EXTMAX
 10
1.987794
 20
1.750917
  9
$LIMMIN
 10
0.438746
 20
0.216501
  9
$LIMMAX
 10
1.987794
 20
1.750917
  9
$TEXTSTYLE
  7
STANDARD
  9
$CLAYER
  8
default
  0
ENDSEC
  0
SECTION
  2
TABLES
  0
TABLE
  2
LTYPE
 70
4948253
  0
LTYPE
  2
CONTINUOUS
 70
    64
  3
Solid line
 72
    65
 73
     0
 40
0.0
  0
ENDTAB
  0
TABLE
  2
LAYER
 70
     5
  0
LAYER
  2
default
 70
    64
 62
     7
  6
CONTINUOUS
  0
ENDTAB
  0
TABLE
  2
STYLE
 70
     1
  0
STYLE
  2
STANDARD
 70
     0
 40
0.0
 41
1.0
 50
0.0
 71
     0
 42
0.2
  3
txt
  4

  0
ENDTAB
  0
TABLE
  2
VIEW
 70
     0
  0
ENDTAB
  0
ENDSEC
  0
SECTION
  2
BLOCKS
  0
ENDSEC
  0
SECTION
  2
ENTITIES
  0
LINE
  8
default
 10
0.616656
 20
0.647324
 30
0.0
 11
0.624812
 21
0.647324
 31
0.0
  0
LINE
  8
default
 10
0.856656
 20
0.647324
 30
0.0
 11
0.856656
 21
0.885324
 31
0.0
  0
LINE
  8
default
 10
0.616656
 20
0.885324
 30
0.0
 11
0.616656
 21
0.647324
 31
0.0
  0
LINE
  8
default
 10
0.616656
 20
0.887324
 30
0.0
 11
0.687656
 21
0.887324
 31
0.0
  0
LINE
  8
default
 10
0.616656
 20
1.135324
 30
0.0
 11
0.616656
 21
1.087324
 31
0.0
  0
LINE
  8
default
 10
0.616656
 20
1.375324
 30
0.0
 11
0.616656
 21
1.137324
 31
0.0
  0
LINE
  8
default
 10
0.496656
 20
1.700008
 30
0.0
 11
0.496656
 21
0.607324
 31
0.0
  0
LINE
  8
default
 10
0.696656
 20
0.637324
 30
0.0
 11
0.866656
 21
0.637324
 31
0.0
  0
LINE
  8
default
 10
0.856656
 20
0.885324
 30
0.0
 11
0.856656
 21
0.887324
 31
0.0
  0
LINE
  8
default
 10
0.866656
 20
0.637324
 30
0.0
 11
0.866656
 21
0.877324
 31
0.0
  0
LINE
  8
default
 10
0.616656
 20
0.895324
 30
0.0
 11
0.616656
 21
0.887324
 31
0.0
  0
LINE
  8
default
 10
0.616656
 20
0.887324
 30
0.0
 11
0.616656
 21
0.885324
 31
0.0
  0
LINE
  8
default
 10
0.696656
 20
0.647324
 30
0.0
 11
0.856656
 21
0.647324
 31
0.0
  0
LINE
  8
default
 10
0.624812
 20
0.647324
 30
0.0
 11
0.696656
 21
0.647324
 31
0.0
  0
LINE
  8
default
 10
0.696656
 20
0.637324
 30
0.0
 11
0.696656
 21
0.647324
 31
0.0
  0
LINE
  8
default
 10
0.616656
 20
0.607324
 30
0.0
 11
0.496656
 21
0.607324
 31
0.0
  0
LINE
  8
default
 10
1.351077
 20
0.887324
 30
0.0
 11
0.871656
 21
0.887324
 31
0.0
  0
LINE
  8
default
 10
0.616656
 20
1.377324
 30
0.0
 11
0.616656
 21
1.700008
 31
0.0
  0
LINE
  8
default
 10
0.616656
 20
0.637324
 30
0.0
 11
0.696656
 21
0.637324
 31
0.0
  0
LINE
  8
default
 10
0.696656
 20
0.267410
 30
0.0
 11
0.696656
 21
0.637324
 31
0.0
  0
LINE
  8
default
 10
0.616656
 20
0.267410
 30
0.0
 11
0.616656
 21
0.600324
 31
0.0
  0
LINE
  8
default
 10
0.616656
 20
0.607324
 30
0.0
 11
0.616656
 21
0.637324
 31
0.0
  0
LINE
  8
default
 10
0.616656
 20
0.637324
 30
0.0
 11
0.616656
 21
0.640324
 31
0.0
  0
LINE
  8
default
 10
0.871656
 20
0.887324
 30
0.0
 11
0.856656
 21
0.887324
 31
0.0
  0
LINE
  8
default
 10
0.866656
 20
0.877324
 30
0.0
 11
1.936884
 21
0.877324
 31
0.0
  0
LINE
  8
default
 10
0.616656
 20
1.135324
 30
0.0
 11
0.616656
 21
1.137324
 31
0.0
  0
LINE
  8
default
 10
0.616656
 20
1.375324
 30
0.0
 11
0.616656
 21
1.377324
 31
0.0
  0
LINE
  8
default
 10
1.506656
 20
0.887324
 30
0.0
 11
1.537550
 21
0.887324
 31
0.0
  0
LINE
  8
default
 10
0.687656
 20
0.887324
 30
0.0
 11
0.856656
 21
0.887324
 31
0.0
  0
LINE
  8
default
 10
0.616656
 20
1.087324
 30
0.0
 11
0.616656
 21
0.895324
 31
0.0
  0
LINE
  8
default
 10
0.856656
 20
1.087324
 30
0.0
 11
0.631656
 21
1.087324
 31
0.0
  0
LINE
  8
default
 10
1.506656
 20
0.887324
 30
0.0
 11
1.351077
 21
0.887324
 31
0.0
  0
LINE
  8
default
 10
0.631656
 20
1.087324
 30
0.0
 11
0.616656
 21
1.087324
 31
0.0
  0
LINE
  8
default
 10
0.856656
 20
1.087324
 30
0.0
 11
0.857532
 21
1.087324
 31
0.0
  0
LINE
  8
default
 10
0.856656
 20
1.087324
 30
0.0
 11
0.856656
 21
1.269324
 31
0.0
  0
LINE
  8
default
 10
0.856656
 20
1.269324
 30
0.0
 11
0.856656
 21
1.270009
 31
0.0
  0
LINE
  8
default
 10
0.856656
 20
1.270009
 30
0.0
 11
0.856656
 21
1.279324
 31
0.0
  0
LINE
  8
default
 10
0.856656
 20
1.279324
 30
0.0
 11
0.856656
 21
1.700008
 31
0.0
  0
LINE
  8
default
 10
0.866656
 20
1.700008
 30
0.0
 11
0.866656
 21
1.279324
 31
0.0
  0
LINE
  8
default
 10
0.866656
 20
1.087324
 30
0.0
 11
1.356877
 21
1.087324
 31
0.0
  0
LINE
  8
default
 10
0.866656
 20
1.087324
 30
0.0
 11
0.866656
 21
1.187324
 31
0.0
  0
LINE
  8
default
 10
0.857532
 20
1.087324
 30
0.0
 11
0.866656
 21
1.087324
 31
0.0
  0
LINE
  8
default
 10
1.356877
 20
1.087324
 30
0.0
 11
1.367370
 21
1.087324
 31
0.0
  0
LINE
  8
default
 10
1.380391
 20
1.087324
 30
0.0
 11
1.537550
 21
1.087324
 31
0.0
  0
LINE
  8
default
 10
1.367370
 20
1.087324
 30
0.0
 11
1.368108
 21
1.087324
 31
0.0
  0
LINE
  8
default
 10
1.368108
 20
1.087324
 30
0.0
 11
1.380391
 21
1.087324
 31
0.0
  0
LINE
  8
default
 10
1.537550
 20
1.087324
 30
0.0
 11
1.936884
 21
1.087324
 31
0.0
  0
LINE
  8
default
 10
0.866656
 20
1.187324
 30
0.0
 11
0.866656
 21
1.279324
 31
0.0
  0
LINE
  8
default
 10
1.936884
 20
1.187324
 30
0.0
 11
0.876656
 21
1.187324
 31
0.0
  0
LINE
  8
default
 10
1.936884
 20
1.199324
 30
0.0
 11
0.878656
 21
1.199324
 31
0.0
  0
LINE
  8
default
 10
0.876656
 20
1.127324
 30
0.0
 11
1.936884
 21
1.127324
 31
0.0
  0
LINE
  8
default
 10
1.936884
 20
0.887324
 30
0.0
 11
1.537550
 21
0.887324
 31
0.0
  0
LINE
  8
default
 10
1.936884
 20
1.190324
 30
0.0
 11
0.869656
 21
1.190324
 31
0.0
  0
LINE
  8
default
 10
0.876656
 20
1.187324
 30
0.0
 11
0.866656
 21
1.187324
 31
0.0
  0
LINE
  8
default
 10
0.876656
 20
1.187324
 30
0.0
 11
0.876656
 21
1.127324
 31
0.0
  0
LINE
  8
default
 10
0.869656
 20
1.279324
 30
0.0
 11
0.869656
 21
1.199324
 31
0.0
  0
LINE
  8
default
 10
0.878656
 20
1.279324
 30
0.0
 11
0.878656
 21
1.199324
 31
0.0
  0
LINE
  8
default
 10
0.869656
 20
1.199324
 30
0.0
 11
0.869656
 21
1.190324
 31
0.0
  0
LINE
  8
default
 10
0.866656
 20
1.279324
 30
0.0
 11
0.869656
 21
1.279324
 31
0.0
  0
LINE
  8
default
 10
0.869656
 20
1.279324
 30
0.0
 11
0.878656
 21
1.279324
 31
0.0
  0
LINE
  8
default
 10
0.616656
 20
0.640324
 30
0.0
 11
0.616656
 21
0.647324
 31
0.0
  0
LINE
  8
default
 10
0.494156
 20
1.700008
 30
0.0
 11
0.494156
 21
0.604824
 31
0.0
  0
LINE
  8
default
 10
0.491656
 20
1.700008
 30
0.0
 11
0.491656
 21
0.602324
 31
0.0
  0
LINE
  8
default
 10
0.616656
 20
0.604824
 30
0.0
 11
0.616656
 21
0.607324
 31
0.0
  0
LINE
  8
default
 10
0.616656
 20
0.604824
 30
0.0
 11
0.494156
 21
0.604824
 31
0.0
  0
LINE
  8
default
 10
0.616656
 20
0.602324
 30
0.0
 11
0.616656
 21
0.604824
 31
0.0
  0
LINE
  8
default
 10
0.616656
 20
0.602324
 30
0.0
 11
0.491656
 21
0.602324
 31
0.0
  0
LINE
  8
default
 10
0.616656
 20
0.600324
 30
0.0
 11
0.616656
 21
0.602324
 31
0.0
  0
LINE
  8
default
 10
0.616656
 20
0.600324
 30
0.0
 11
0.489656
 21
0.600324
 31
0.0
  0
LINE
  8
default
 10
0.489656
 20
1.700008
 30
0.0
 11
0.489656
 21
0.600324
 31
0.0
  0
LINE
  8
default
 10
0.616656
 20
0.267410
 30
0.0
 11
0.696656
 21
0.267410
 31
0.0
  0
LINE
  8
default
 10
1.936884
 20
1.199324
 30
0.0
 11
1.936884
 21
1.190324
 31
0.0
  0
LINE
  8
default
 10
1.936884
 20
1.190324
 30
0.0
 11
1.936884
 21
1.187324
 31
0.0
  0
LINE
  8
default
 10
1.936884
 20
1.187324
 30
0.0
 11
1.936884
 21
1.127324
 31
0.0
  0
LINE
  8
default
 10
1.936884
 20
1.127324
 30
0.0
 11
1.936884
 21
1.087324
 31
0.0
  0
LINE
  8
default
 10
1.936884
 20
1.087324
 30
0.0
 11
1.936884
 21
0.887324
 31
0.0
  0
LINE
  8
default
 10
1.936884
 20
0.887324
 30
0.0
 11
1.936884
 21
0.877324
 31
0.0
  0
LINE
  8
default
 10
0.489656
 20
1.700008
 30
0.0
 11
0.491656
 21
1.700008
 31
0.0
  0
LINE
  8
default
 10
0.491656
 20
1.700008
 30
0.0
 11
0.494156
 21
1.700008
 31
0.0
  0
LINE
  8
default
 10
0.494156
 20
1.700008
 30
0.0
 11
0.496656
 21
1.700008
 31
0.0
  0
LINE
  8
default
 10
0.496656
 20
1.700008
 30
0.0
 11
0.616656
 21
1.700008
 31
0.0
  0
LINE
  8
default
 10
0.616656
 20
1.700008
 30
0.0
 11
0.856656
 21
1.700008
 31
0.0
  0
LINE
  8
default
 10
0.856656
 20
1.700008
 30
0.0
 11
0.866656
 21
1.700008
 31
0.0
  0
ENDSEC
  0
EOF
